<svg xmlns="http://www.w3.org/2000/svg" xmlns:xlink="http://www.w3.org/1999/xlink" version="1.1" width="33.454553842544556" height="16.727280855178833" xml:space="preserve" style=""><rect id="backgroundrect" width="100%" height="100%" x="0" y="0" fill="none" stroke="none" style="" class=""/>
<desc>Created with Fabric.js 5.2.4</desc>
<defs>
</defs>



<g class="currentLayer" style=""><title>Layer 1</title><g id="5a8ff41e-90b4-4438-bb06-7edf253f18fc" class="">
</g><g id="svg_2" class="">
<g style="" vector-effect="non-scaling-stroke" stroke-width="0" id="svg_3">
		<g stroke-width="0" id="svg_4">
<path style="stroke: none; stroke-width: 1; stroke-dasharray: none; stroke-linecap: butt; stroke-dashoffset: 0; stroke-linejoin: miter; stroke-miterlimit: 4; fill: rgb(0,0,0); fill-rule: nonzero; opacity: 1;" vector-effect="non-scaling-stroke" d="M9.823633810877823,14.20290538966654 C7.477633768320061,11.580905342102056 9.087633797526337,6.980905258655554 11.065633833408356,5.23290522694586 C12.721633863449085,3.71490519940852 15.481633913516987,2.4729051768779584 15.757633918523766,2.9329051852226087 C16.171633926033962,3.622905197739584 14.561633896827686,4.082905206084234 13.319633874297125,5.186905226111378 C11.801633846759785,6.842905256152136 11.29563383758068,7.578905269503565 13.41163387596606,8.498905286192866 C15.665633916854858,9.510905304551102 15.711633917689312,10.52290532290931 15.80363391935822,11.810905346274353 C15.941633921861637,14.98490540385248 12.123633852601074,16.456905430555366 9.823633810877823,14.20290538966654 z" stroke-linecap="round" stroke-width="0" id="svg_5"/>
</g>
		<g stroke-width="0" id="svg_6">
<path style="stroke: none; stroke-width: 1; stroke-dasharray: none; stroke-linecap: butt; stroke-dashoffset: 0; stroke-linejoin: miter; stroke-miterlimit: 4; fill: rgb(0,0,0); fill-rule: nonzero; opacity: 1;" vector-effect="non-scaling-stroke" d="M0.9916336506605319,14.156920647621149 C-1.3543663918972015,11.534920600056665 0.2556336373090744,6.934920516610163 2.2336336731910933,5.186920484900469 C3.889633703231823,3.6689204573631287 6.6496337532997245,2.4269204348325673 6.925633758306503,2.8869204431772175 C7.3396337658166715,3.576920455694193 5.7296337366103955,4.036920464038843 4.487633714079834,5.140920484066015 C2.969633686542494,6.796920514106745 2.4636336773634184,7.532920527458174 4.57963371574877,8.452920544147474 C6.833633756637539,9.46492056250571 6.879633757472021,10.476920580863919 6.971633759140957,11.764920604228962 C7.109633761644346,14.93892066180706 3.2916336923837832,16.41092068850992 0.9916336506605319,14.156920647621149 z" stroke-linecap="round" stroke-width="0" id="svg_7"/>
</g>
		<g stroke-width="0" id="svg_8">
<path style="stroke: none; stroke-width: 1; stroke-dasharray: none; stroke-linecap: butt; stroke-dashoffset: 0; stroke-linejoin: miter; stroke-miterlimit: 4; fill: rgb(0,0,0); fill-rule: nonzero; opacity: 1;" vector-effect="non-scaling-stroke" d="M31.540242359042168,3.9449128329754046 C33.88624240159987,6.566912880539888 32.2762423723936,11.166912963986391 30.298242336511635,12.914912995696085 C28.64224230647085,14.432913023233425 25.882242256402947,15.674913045764015 25.606242251396225,15.214913037419365 C25.19224224388597,14.52491302490239 26.802242273092247,14.06491301655771 28.044242295622837,12.960912996530567 C29.562242323160206,11.304912966489809 30.06824233233931,10.56891295313838 27.95224229395393,9.64891293644908 C25.698242253065132,8.636912918090843 25.65224225223068,7.624912899732635 25.560242250561714,6.336912876367592 C25.422242248058296,3.162912818789465 29.240242317318916,1.6449127912521533 31.540242359042168,3.9449128329754046 z" stroke-linecap="round" stroke-width="0" id="svg_9"/>
</g>
		<g stroke-width="0" id="svg_10">
<path style="stroke: none; stroke-width: 1; stroke-dasharray: none; stroke-linecap: butt; stroke-dashoffset: 0; stroke-linejoin: miter; stroke-miterlimit: 4; fill: rgb(0,0,0); fill-rule: nonzero; opacity: 1;" vector-effect="non-scaling-stroke" d="M22.708242198824905,3.898928090929985 C25.05424224138261,6.520928138494497 23.444242212176334,11.120928221941 21.466242176294344,12.868928253650665 C19.810242146253614,14.386928281188005 17.050242096185684,15.628928303718567 16.774242091178905,15.168928295373917 C16.36024208366871,14.478928282856941 17.970242112874985,14.018928274512291 19.212242135405575,12.914928254485147 C20.730242162942915,11.25892822444439 21.23624217212202,10.52292821109296 19.12024213373664,9.60292819440366 C16.86624209284784,8.590928176045452 16.820242092013387,7.578928157687216 16.72824209034445,6.2909281343222005 C16.636242088675488,3.116928076744074 20.408242157101654,1.5989280492067337 22.708242198824905,3.898928090929985 z" stroke-linecap="round" stroke-width="0" id="svg_11"/>
</g>
</g>
</g></g></svg>